<?xml version="1.0" encoding="UTF-8"?>
<svg version="1.1" xmlns="http://www.w3.org/2000/svg" width="235" height="236">
<path d="M0 0 C1.09731445 0.00676758 1.09731445 0.00676758 2.21679688 0.01367188 C3.99873419 0.02531852 5.78062863 0.04324809 7.5625 0.0625 C7.68718381 9.36583052 7.68718381 9.36583052 5.5625 14.0625 C2.94308783 15.80877478 1.52425123 16.44972388 -1.4375 17.0625 C-0.468125 17.206875 0.50125 17.35125 1.5 17.5 C4.5625 18.0625 4.5625 18.0625 5.5625 19.0625 C5.79242868 22.7278337 5.65869916 26.39318905 5.5625 30.0625 C5.54574219 31.06410156 5.52898437 32.06570312 5.51171875 33.09765625 C5.1756568 40.23177144 5.1756568 40.23177144 2.625 43.6875 C-1.7670218 45.65942815 -5.65556553 45.9179579 -10.4375 46.0625 C-11.08879883 46.08828125 -11.74009766 46.1140625 -12.41113281 46.140625 C-14.56577114 46.21973058 -16.71933174 46.27076956 -18.875 46.3125 C-19.92264526 46.3448877 -19.92264526 46.3448877 -20.99145508 46.37792969 C-23.84358807 46.39599215 -25.94516321 46.35906508 -28.421875 44.8671875 C-30.59233824 41.01044129 -29.07620893 36.25332702 -28.4375 32.0625 C-28.31117187 31.22203125 -28.18484375 30.3815625 -28.0546875 29.515625 C-27.16829612 24.71299533 -25.92675559 21.6680641 -22.4375 18.0625 C-22.98083984 17.24652344 -22.98083984 17.24652344 -23.53515625 16.4140625 C-24.76979035 13.19653121 -24.04351027 11.63688974 -22.875 8.4375 C-22.54371094 7.47585937 -22.21242188 6.51421875 -21.87109375 5.5234375 C-20.4375 3.0625 -20.4375 3.0625 -18.22265625 1.7890625 C-12.13006576 0.19969107 -6.24819934 -0.07431527 0 0 Z " fill="#B5DD25" transform="translate(91.4375,17.9375)"/>
<path d="M0 0 C13.5065561 0.04521563 13.5065561 0.04521563 19.125 2.1875 C22.40700067 5.86393612 23.98909907 9.45476309 24.375 14.375 C24.125 17.1875 24.125 17.1875 22.125 19.1875 C22.90875 19.744375 23.6925 20.30125 24.5 20.875 C29.37533729 25.68128152 28.957547 33.97473893 29.29296875 40.41015625 C29.125 43.1875 29.125 43.1875 27.125 46.1875 C24.53590177 46.44157039 22.20739854 46.51580803 19.625 46.4375 C18.54557129 46.41888916 18.54557129 46.41888916 17.44433594 46.39990234 C1.34412109 46.04268108 1.34412109 46.04268108 -2.875 43.1875 C-5.91124633 36.25569233 -5.76495431 26.54636953 -4.875 19.1875 C-3.35546875 17.27734375 -3.35546875 17.27734375 -1.875 16.1875 C-2.50792969 15.81882812 -3.14085937 15.45015625 -3.79296875 15.0703125 C-6.57075861 12.55831492 -6.67962382 10.72804114 -7.1875 7.0625 C-7.42919922 5.44988281 -7.42919922 5.44988281 -7.67578125 3.8046875 C-7.77439453 2.50917969 -7.77439453 2.50917969 -7.875 1.1875 C-5.95081305 -0.73668695 -2.54965268 0.01282521 0 0 Z M4.125 17.1875 C4.125 17.5175 4.125 17.8475 4.125 18.1875 C8.085 18.1875 12.045 18.1875 16.125 18.1875 C16.125 17.8575 16.125 17.5275 16.125 17.1875 C12.165 17.1875 8.205 17.1875 4.125 17.1875 Z " fill="#FF9A1E" transform="translate(139.875,17.8125)"/>
<path d="M0 0 C1.6396875 -0.04350586 1.6396875 -0.04350586 3.3125 -0.08789062 C4.364375 -0.09626953 5.41625 -0.10464844 6.5 -0.11328125 C7.4590625 -0.12786377 8.418125 -0.14244629 9.40625 -0.1574707 C12.74118362 0.44679767 13.91316856 1.70100892 16 4.3125 C16.42578125 6.43359375 16.42578125 6.43359375 16.3125 8.75 C16.27382812 9.61882812 16.23515625 10.48765625 16.1953125 11.3828125 C16.13085938 12.34960938 16.06640625 13.31640625 16 14.3125 C15.95617187 15.42367187 15.91234375 16.53484375 15.8671875 17.6796875 C15.32325999 28.10890623 15.32325999 28.10890623 12 32.3125 C6.78677552 34.82825175 1.69228405 34.90437592 -4 35.1875 C-5.47726563 35.29578125 -5.47726563 35.29578125 -6.984375 35.40625 C-11.19569624 35.62250704 -14.23410974 35.63059534 -18.16015625 34 C-21.09715523 29.70986137 -20.60597415 25.5049381 -20.4375 20.4375 C-20.42879883 18.96603516 -20.42879883 18.96603516 -20.41992188 17.46484375 C-20.21861059 5.53111059 -20.21861059 5.53111059 -16 1.3125 C-10.91139325 -0.43043151 -5.31005869 0.04696396 0 0 Z " fill="#FF3518" transform="translate(156,139.6875)"/>
<path d="M0 0 C1.1446875 0.01256836 1.1446875 0.01256836 2.3125 0.02539062 C3.49585938 0.06889648 3.49585938 0.06889648 4.703125 0.11328125 C5.4765625 0.12294922 6.25 0.13261719 7.046875 0.14257812 C20.6255674 0.4045831 20.6255674 0.4045831 24.390625 3.30078125 C28.18540748 8.46168543 27.58212818 15.265834 27.953125 21.42578125 C28.03175781 22.39515625 28.11039063 23.36453125 28.19140625 24.36328125 C28.23652344 25.22953125 28.28164062 26.09578125 28.328125 26.98828125 C28.37710938 27.75269531 28.42609375 28.51710938 28.4765625 29.3046875 C27.66270755 32.60262212 25.7249002 33.58705063 22.953125 35.42578125 C20.06225586 35.8515625 20.06225586 35.8515625 16.91796875 35.73828125 C15.20963867 35.67833984 15.20963867 35.67833984 13.46679688 35.6171875 C12.28666016 35.55402344 11.10652344 35.49085937 9.890625 35.42578125 C8.70662109 35.39355469 7.52261719 35.36132812 6.30273438 35.328125 C-2.40492382 34.94331064 -2.40492382 34.94331064 -5.35327148 32.56640625 C-9.16961257 27.74275357 -8.30560292 21.84943808 -8.359375 15.98828125 C-8.38837891 14.93833984 -8.41738281 13.88839844 -8.44726562 12.80664062 C-8.45564453 11.79537109 -8.46402344 10.78410156 -8.47265625 9.7421875 C-8.48723877 8.81865479 -8.50182129 7.89512207 -8.5168457 6.94360352 C-7.63988274 2.24535987 -4.71514389 -0.10078425 0 0 Z " fill="#FFD017" transform="translate(144.046875,64.57421875)"/>
<path d="M0 0 C1.19592773 -0.0309375 1.19592773 -0.0309375 2.41601562 -0.0625 C8.16648991 -0.10119116 8.16648991 -0.10119116 10.4050293 1.40771484 C13.2361281 5.47462358 12.19781738 11.35321345 12.1875 16.125 C12.21585938 17.30964844 12.24421875 18.49429688 12.2734375 19.71484375 C12.29279805 28.30124632 12.29279805 28.30124632 9.6015625 32.51953125 C6.04912305 34.6290898 3.68347679 34.94635556 -0.4375 35.0625 C-1.75621094 35.10503906 -3.07492188 35.14757812 -4.43359375 35.19140625 C-5.71363281 35.21074219 -6.99367188 35.23007813 -8.3125 35.25 C-9.39660156 35.30027344 -10.48070313 35.35054687 -11.59765625 35.40234375 C-18.39453766 35.63104097 -18.39453766 35.63104097 -21.58984375 34.3046875 C-24.40386308 30.94828349 -23.81078387 27.35558323 -23.6875 23.125 C-23.68621094 22.30773437 -23.68492188 21.49046875 -23.68359375 20.6484375 C-23.48820479 6.92779051 -23.48820479 6.92779051 -19.6875 2.25 C-13.66840128 -0.28435735 -6.44929887 0.04274597 0 0 Z " fill="#DCE817" transform="translate(83.3125,64.75)"/>
<path d="M0 0 C1.00224609 0.00386719 2.00449219 0.00773438 3.03710938 0.01171875 C4.59848633 0.04845703 4.59848633 0.04845703 6.19140625 0.0859375 C7.22845703 0.08722656 8.26550781 0.08851563 9.33398438 0.08984375 C20.46840558 0.21856538 20.46840558 0.21856538 24.53930664 4.21264648 C27.03862387 8.83902083 26.22191547 14.38956836 26.19140625 19.5234375 C26.22137695 21.3187793 26.22137695 21.3187793 26.25195312 23.15039062 C26.25130859 24.29572266 26.25066406 25.44105469 26.25 26.62109375 C26.25277954 28.19322632 26.25277954 28.19322632 26.25561523 29.79711914 C25.75390625 32.4609375 25.75390625 32.4609375 23.85546875 34.30541992 C20.00820067 36.42079165 16.02781556 35.69457788 11.75390625 35.4609375 C10.64273438 35.41839844 9.5315625 35.37585938 8.38671875 35.33203125 C1.46175326 34.96301381 -3.1608038 34.54622745 -8.24609375 29.4609375 C-9.31210504 24.08961611 -9.49110529 18.73100461 -9.55859375 13.2734375 C-9.58759766 12.48001953 -9.61660156 11.68660156 -9.64648438 10.86914062 C-9.65486328 10.10150391 -9.66324219 9.33386719 -9.671875 8.54296875 C-9.68645752 7.85436768 -9.70104004 7.1657666 -9.71606445 6.45629883 C-8.50116292 1.29817405 -4.86039616 -0.0438532 0 0 Z " fill="#75C1FF" transform="translate(69.24609375,139.5390625)"/>
<path d="M0 0 C2 2 2 2 2.23046875 4.6171875 C2.18479337 8.08021199 2.11638246 11.53856051 2 15 C1.95552734 16.65902344 1.95552734 16.65902344 1.91015625 18.3515625 C1.67706083 22.93387739 1.47862085 26.15828747 -0.8125 30.1875 C-4.89707618 33.57186312 -9.86435384 33.36854802 -15 33.75 C-15.7115625 33.81832031 -16.423125 33.88664062 -17.15625 33.95703125 C-20.24486279 34.1817624 -22.60471107 34.1655856 -25.48046875 32.9609375 C-27.78898858 29.98181937 -27.42129847 27.58915477 -27.3125 23.875 C-27.28385864 22.86783936 -27.28385864 22.86783936 -27.25463867 21.84033203 C-27.1901577 19.89277234 -27.09571842 17.94627453 -27 16 C-26.979375 15.071875 -26.95875 14.14375 -26.9375 13.1875 C-26.73717909 9.48156321 -26.25087411 7.32111886 -23.94921875 4.375 C-20.44134664 1.55011756 -17.33704007 0.78115735 -13 0.125 C-12.30132812 -0.00390625 -11.60265625 -0.1328125 -10.8828125 -0.265625 C-7.01536129 -0.922362 -3.7560635 -1.22900607 0 0 Z " fill="#B3DC19" transform="translate(57,68)"/>
<path d="M0 0 C2.80574954 1.12785575 4.12616556 2.38897231 5.97265625 4.79296875 C6.80078125 8.1484375 6.80078125 8.1484375 7.22265625 11.98046875 C7.29709961 12.64594727 7.37154297 13.31142578 7.44824219 13.99707031 C8.86632008 27.452473 8.86632008 27.452473 5.97265625 31.79296875 C3.15797354 32.07173924 0.59499379 32.16484824 -2.21484375 32.10546875 C-2.95798828 32.10869141 -3.70113281 32.11191406 -4.46679688 32.11523438 C-9.32694201 32.06837934 -13.46854056 31.5249664 -18.02734375 29.79296875 C-22.20546589 23.52578554 -21.14964805 14.60282245 -21.27734375 7.23046875 C-21.29877441 6.52768799 -21.32020508 5.82490723 -21.34228516 5.10083008 C-21.35546875 3.1015625 -21.35546875 3.1015625 -21.02734375 -0.20703125 C-15.15254662 -4.12356267 -6.66690228 -1.25861146 0 0 Z " fill="#FF9917" transform="translate(194.02734375,69.20703125)"/>
<path d="M0 0 C0.69388601 8.45572714 0.840951 19.47341807 -3.7578125 26.80078125 C-8.99411691 31.93673836 -18.03281822 31.22101004 -25.00390625 31.265625 C-27 31 -27 31 -29 29 C-29.17467538 26.27328771 -29.23468062 23.66152947 -29.1875 20.9375 C-29.17887939 20.16833252 -29.17025879 19.39916504 -29.16137695 18.60668945 C-28.94390442 4.79791318 -28.94390442 4.79791318 -26.6875 0.5 C-23.12079383 -2.67040548 -18.13611035 -2.33847324 -13.5625 -2.6875 C-12.26441406 -2.79449219 -10.96632812 -2.90148437 -9.62890625 -3.01171875 C-5.95571586 -2.99985699 -2.71062711 -2.71062711 0 0 Z " fill="#F4827B" transform="translate(202,141)"/>
<path d="M0 0 C0.70318359 0.03996094 1.40636719 0.07992187 2.13085938 0.12109375 C7.128603 0.4677039 11.18352936 0.89176855 14.83203125 4.5 C17.35051313 9.105224 16.88109388 14.60827042 17.0625 19.75 C17.10375 20.88824219 17.145 22.02648437 17.1875 23.19921875 C17.3046159 29.26728614 17.3046159 29.26728614 17.0625 31.75 C15.0625 33.75 15.0625 33.75 11.1875 34 C-3.75078233 33.61262153 -3.75078233 33.61262153 -8.23046875 29.796875 C-14.09445495 22.76545905 -12.04022755 10.41335693 -11.9375 1.75 C-8.1251184 -0.82459536 -4.37996652 -0.34337021 0 0 Z " fill="#6187FF" transform="translate(41.9375,138.25)"/>
<path d="M0 0 C0.72034424 0.00483398 1.44068848 0.00966797 2.18286133 0.01464844 C16.38102765 0.17362466 16.38102765 0.17362466 21.5625 2.5 C24.65891909 6.69514844 24.40612509 11.03563895 24.5 16.125 C24.55800781 17.54619141 24.55800781 17.54619141 24.6171875 18.99609375 C24.74744102 23.98190912 24.74744102 23.98190912 24.5 26.125 C22.5 28.125 22.5 28.125 19.4453125 28.390625 C-1.85107216 28.30352322 -1.85107216 28.30352322 -6.08789062 24.8190918 C-8.47871815 21.9508428 -8.67424591 18.33785709 -9.25 14.75 C-9.38792969 13.99460938 -9.52585938 13.23921875 -9.66796875 12.4609375 C-10.34432192 8.47254563 -10.86148307 5.04304574 -9.5 1.125 C-6.46683235 -0.39158383 -3.32441845 -0.02273625 0 0 Z " fill="#6087FF" transform="translate(72.5,175.875)"/>
<path d="M0 0 C0.39957179 7.05910161 0.70495151 16.52815015 -3.77734375 22.28125 C-10.82913552 27.73430515 -23.48511629 26.73200012 -32 26 C-34 24 -34 24 -34.23046875 21.75 C-34.18485694 18.83084445 -34.11669046 15.91726143 -34 13 C-33.97035156 12.07316406 -33.94070312 11.14632812 -33.91015625 10.19140625 C-33.85730469 9.32386719 -33.80445313 8.45632812 -33.75 7.5625 C-33.70359375 6.78003906 -33.6571875 5.99757812 -33.609375 5.19140625 C-32.77199465 2.18005768 -31.38214275 0.9965907 -29 -1 C-26.51391602 -1.66943359 -26.51391602 -1.66943359 -23.75390625 -1.8984375 C-22.75166016 -1.98480469 -21.74941406 -2.07117188 -20.71679688 -2.16015625 C-19.15541992 -2.26650391 -19.15541992 -2.26650391 -17.5625 -2.375 C-16.00692383 -2.51615234 -16.00692383 -2.51615234 -14.41992188 -2.66015625 C-3.51464786 -3.51464786 -3.51464786 -3.51464786 0 0 Z " fill="#F3817A" transform="translate(169,178)"/>
<path d="M0 0 C11.74966142 1.73393062 11.74966142 1.73393062 15 6 C17.42472827 14.12091533 17.24372368 22.60507329 17 31 C13.53332966 31.84523058 10.87621004 32.08486733 7.375 31.375 C6.61960938 31.23835938 5.86421875 31.10171875 5.0859375 30.9609375 C1.94721256 29.51500803 1.34904154 28.20548377 0 25 C-0.68643398 21.3079977 -1.01409421 17.61598971 -1.3125 13.875 C-1.41111328 12.87339844 -1.50972656 11.87179688 -1.61132812 10.83984375 C-2.25673819 3.38510729 -2.25673819 3.38510729 0 0 Z " fill="#FF4026" transform="translate(203,72)"/>
<path d="M0 0 C1 1 1 1 1.3125 3.5625 C0.90741948 8.01838568 -0.43327158 11.33925618 -3 15 C-10.32550947 19.68018661 -21.71516824 18.104724 -30 18 C-31.08030956 14.68190636 -30.92122208 12.28196053 -30.25 8.875 C-30.09015625 8.00617188 -29.9303125 7.13734375 -29.765625 6.2421875 C-29 4 -29 4 -26 2 C-23.46132045 1.53318265 -20.99623163 1.16232209 -18.4375 0.875 C-17.72456787 0.79080811 -17.01163574 0.70661621 -16.27709961 0.61987305 C-10.8853949 0.01835699 -5.41901205 -0.52838439 0 0 Z " fill="#F15A50" transform="translate(163,204)"/>
<path d="M0 0 C0.45224909 22.71295421 0.45224909 22.71295421 -4 28 C-8.85674602 29.99707896 -12.91507891 30.23080246 -18 29 C-18.52285534 7.21436087 -18.52285534 7.21436087 -14.703125 2.34765625 C-12.72296615 0.78078744 -10.94950744 0.00463746 -8.5625 -0.8125 C-7.80066406 -1.08707031 -7.03882813 -1.36164063 -6.25390625 -1.64453125 C-3.49421705 -2.0797682 -2.32760825 -1.45806895 0 0 Z " fill="#68BC2C" transform="translate(30,74)"/>
<path d="M0 0 C1.79100575 1.79100575 1.17315369 4.39371218 1.1875 6.8125 C1.12414142 13.19763711 1.05278144 19.89975326 -1 26 C-4.68506122 29.42672703 -8.86263514 30.90707109 -13.875 31.125 C-14.926875 31.063125 -14.926875 31.063125 -16 31 C-18.66745398 26.12465339 -17.93394988 21.80466367 -17.3125 16.5 C-17.23322266 15.65824219 -17.15394531 14.81648437 -17.07226562 13.94921875 C-16.51800297 8.88509235 -15.758919 4.758919 -12 1 C-7.98436156 0.30498566 -4.07825883 -0.23989758 0 0 Z " fill="#F15A50" transform="translate(219,136)"/>
<path d="M0 0 C4.58537489 0.1122033 9.1314 0.55706894 13.6875 1.0625 C14.72801514 1.16739746 14.72801514 1.16739746 15.78955078 1.27441406 C19.77292165 1.75988436 22.49533781 2.37751901 25.375 5.25 C26.80963897 9.43436368 26.44916208 13.87443756 26.375 18.25 C7.00280499 18.72057964 7.00280499 18.72057964 0.375 16.25 C-3.54859791 12.23070458 -4.72095989 7.67424064 -5.625 2.25 C-3.625 0.25 -3.625 0.25 0 0 Z " fill="#3F57A6" transform="translate(72.625,203.75)"/>
<path d="M0 0 C1.91752953 0.06029967 3.83417426 0.14916707 5.75 0.25 C7.35101563 0.31960937 7.35101563 0.31960937 8.984375 0.390625 C12.57721586 1.11663947 13.76918491 2.14372273 16 5 C16.9731681 7.9195043 17.1929546 10.05444951 17.31640625 13.10546875 C17.35830078 14.08837891 17.40019531 15.07128906 17.44335938 16.08398438 C17.48267578 17.10814453 17.52199219 18.13230469 17.5625 19.1875 C17.60568359 20.22326172 17.64886719 21.25902344 17.69335938 22.32617188 C17.79944366 24.8839819 17.90150146 27.44188845 18 30 C14.30908203 32.06298828 14.30908203 32.06298828 11.52734375 31.49609375 C4.58852964 28.65986656 4.58852964 28.65986656 1.9375 25.6875 C-0.12271124 19.78156111 -0.13596689 13.73937036 -0.0625 7.5625 C-0.05798828 6.83095703 -0.05347656 6.09941406 -0.04882812 5.34570312 C-0.03718148 3.56376581 -0.01925191 1.78187137 0 0 Z " fill="#3E57A6" transform="translate(12,136)"/>
<path d="M0 0 C13.5065561 0.04521563 13.5065561 0.04521563 19.125 2.1875 C23.12430877 6.54710686 23.23348888 10.43758933 23.125 16.1875 C-2.56712008 16.45574719 -2.56712008 16.45574719 -5.9375 13.1875 C-7.17002639 9.24341555 -7.84078423 5.32760802 -7.875 1.1875 C-5.95081305 -0.73668695 -2.54965268 0.01282521 0 0 Z " fill="#FF3115" transform="translate(139.875,17.8125)"/>
<path d="M0 0 C0.97646484 0.00644531 1.95292969 0.01289063 2.95898438 0.01953125 C3.96638672 0.03628906 4.97378906 0.05304687 6.01171875 0.0703125 C7.03845703 0.07933594 8.06519531 0.08835937 9.12304688 0.09765625 C11.64867774 0.12115049 14.17382685 0.15400119 16.69921875 0.1953125 C16.21078089 10.57461711 16.21078089 10.57461711 14.234375 12.97265625 C10.40273822 14.82057969 6.5903171 15.07165931 2.38671875 15.4453125 C1.14245117 15.58066406 1.14245117 15.58066406 -0.12695312 15.71875 C-5.07400476 16.20291291 -9.41528367 16.11834848 -14.30078125 15.1953125 C-14.01595757 13.77725419 -13.72259981 12.36090871 -13.42578125 10.9453125 C-13.26335937 10.15640625 -13.1009375 9.3675 -12.93359375 8.5546875 C-12.2800452 6.11800032 -11.72163536 4.28638081 -10.30078125 2.1953125 C-6.75491807 0.45571611 -3.92671235 -0.04592646 0 0 Z " fill="#58B415" transform="translate(81.30078125,18.8046875)"/>
</svg>
